<?xml version="1.0" encoding="UTF-8"?>
<svg id="Layer_2" data-name="Layer 2" xmlns="http://www.w3.org/2000/svg" xmlns:xlink="http://www.w3.org/1999/xlink" viewBox="0 0 106 66.7">
  <defs>
    <style>
      .cls-1 {
        fill: #231f20;
      }
    </style>
    <symbol id="an_symbol_test" data-name="an symbol test" viewBox="0 0 106 66.7">
      <g>
        <path class="cls-1" d="M106,65.7h-2.1v-23.3c-1.3-.7-5-2.5-9.3-2.5s-8,1.8-9.3,2.5v23.3h-2.1v-24.5l.5-.3c.2-.1,5-3.1,10.9-3.1s10.7,3,10.9,3.1l.5.3v24.5Z"/>
        <path class="cls-1" d="M65.2,66.7c-7.9,0-14-6.1-14-14.5s6.1-14.5,14-14.5,14,6.1,14,14.5-6.1,14.5-14,14.5ZM65.2,39.6c-6.7,0-11.9,5.1-11.9,12.6s5.2,12.6,11.9,12.6,11.9-5.1,11.9-12.6-5.2-12.6-11.9-12.6Z"/>
        <polygon class="cls-1" points="47.1 40.2 47.1 38.1 30.3 38.1 30.3 65.8 47.1 65.8 47.1 63.7 32.4 63.7 32.4 47 47.1 47 47.1 44.9 32.4 44.9 32.4 40.2 47.1 40.2"/>
        <path class="cls-1" d="M22.8,65.7h-2.1v-23.3c-1.3-.7-5-2.5-9.3-2.5s-8,1.8-9.3,2.5v23.3H0v-24.5l.5-.3c.2-.1,5-3.1,10.9-3.1s10.7,3,10.9,3.1l.5.3s0,24.5,0,24.5Z"/>
        <path class="cls-1" d="M94.6,29c-5.9,0-10.7-3-10.9-3.1l-.5-.3V1.1h2.1v23.3c1.3.7,5,2.5,9.3,2.5s8-1.8,9.3-2.5V1.1h2.1v24.5l-.5.3c-.2.1-5,3.1-10.9,3.1Z"/>
        <path class="cls-1" d="M78.5,2.9c-.2-.1-4.3-2.7-13-2.7s-12.8,2.6-13,2.7l1.1,1.7s3.5-2.2,10.9-2.4v25.9h2.1V2.2c7.3.2,10.8,2.4,10.9,2.4l1.1-1.7h-.1Z"/>
        <path class="cls-1" d="M39.2,29c-4,0-7.4-1.6-8.8-2.4l.4-1.8c2,1.1,5.3,2.3,8.6,2.3s7.4-1.8,7.4-6.1-2.5-4.5-8-6.1c-4.9-1.4-7.6-3.9-7.6-7.6s3.2-7.3,8.8-7.3,5.9,1.2,7.2,1.9l-.4,1.8c-1.9-1-4.5-1.8-6.8-1.8-4.8,0-6.8,2.3-6.8,5.2s2.4,4.7,6.7,5.9c5.5,1.5,8.9,3.9,8.9,7.6,0,5.5-4.2,8.2-9.6,8.2v.2Z"/>
        <path class="cls-1" d="M22.3,3.3c-.2-.1-5-3.1-10.9-3.1S.7,3.2.5,3.3l-.5.3v24.5h2.1v-5.5h15.8v-2.1H2.1V4.7c1.3-.7,5-2.5,9.3-2.5s8,1.8,9.3,2.5v23.3h2.1V3.5l-.5-.3v.1Z"/>
      </g>
    </symbol>
  </defs>
  <g id="Astu_Neon_Logo" data-name="Astu Neon Logo">
    <use width="106" height="66.7" xlink:href="#an_symbol_test"/>
  </g>
</svg>